<?xml version="1.0" encoding="UTF-8" standalone="no"?>
<!DOCTYPE svg PUBLIC "-//W3C//DTD SVG 1.1//EN" "http://www.w3.org/Graphics/SVG/1.1/DTD/svg11.dtd">
<svg xmlns="http://www.w3.org/2000/svg" xmlns:xlink="http://www.w3.org/1999/xlink" version="1.1" baseProfile="full" width="135.083" height="134.983" viewBox="0 0 135.08 134.98" enable-background="new 0 0 135.08 134.98" xml:space="preserve">
	<path fill="#FFFFFF" fill-opacity="1" stroke-width="3.9995" stroke-linejoin="round" stroke="#FFFFFF" stroke-opacity="1" d="M 67.5918,1.99976L 67.5918,1.99976C 31.4216,1.99976 2.09995,31.3215 2.09995,67.4915L 2.09995,67.4917C 2.09995,103.662 31.4216,132.984 67.5918,132.984L 67.5918,132.984C 103.762,132.984 133.084,103.662 133.084,67.4917L 133.084,67.4915C 133.084,31.3215 103.762,1.99976 67.5918,1.99976 Z "/>
	<path fill="#C8C8C8" fill-opacity="1" fill-rule="evenodd" stroke-width="0.2" stroke-linejoin="round" d="M 117.585,46.748C 123.7,52.6111 128.824,59.5 132.679,67.1382C 132.462,48.0149 123.986,30.8757 110.65,19.1201C 114.617,27.5862 117.048,36.915 117.585,46.748 Z "/>
	<linearGradient id="SVGID_Fill1_" gradientUnits="objectBoundingBox" x1="-0.0100511" y1="0.5" x2="1.01005" y2="0.5">
		<stop offset="0" stop-color="#969696" stop-opacity="1"/>
		<stop offset="1" stop-color="#C8C8C8" stop-opacity="1"/>
	</linearGradient>
	<path fill="url(#SVGID_Fill1_)" fill-rule="evenodd" stroke-width="1.99975" stroke-linejoin="round" stroke="#FFFFFF" stroke-opacity="1" d="M 67.6918,1.8999C 51.2192,1.8999 36.178,8.02808 24.7236,18.1292C 21.28,25.4849 18.9955,33.4912 18.1049,41.9138C 31.0509,31.2769 47.6226,24.8914 65.6857,24.8914C 85.8256,24.8914 104.111,32.8296 117.585,45.748C 117.048,35.9153 114.617,26.5867 110.651,18.1208C 99.1974,8.02466 84.1599,1.8999 67.6918,1.8999 Z "/>
	<path fill="#969696" fill-opacity="1" fill-rule="evenodd" stroke-width="0.2" stroke-linejoin="round" d="M 17.1049,42.9138C 17.9955,34.4912 20.28,26.4849 23.7236,19.1292C 12.2431,29.2534 4.36591,43.3684 2.26228,59.304C 6.38074,53.1343 11.3895,47.6096 17.1049,42.9138 Z "/>
	<linearGradient id="SVGID_Fill2_" gradientUnits="objectBoundingBox" x1="-0.0153807" y1="0.5" x2="1.01538" y2="0.5">
		<stop offset="0" stop-color="#969696" stop-opacity="1"/>
		<stop offset="1" stop-color="#646464" stop-opacity="1"/>
	</linearGradient>
	<path fill="url(#SVGID_Fill2_)" fill-rule="evenodd" stroke-width="1.99975" stroke-linejoin="round" stroke="#FFFFFF" stroke-opacity="1" d="M 2.69992,67.8916C 2.69992,93.1221 17.0767,114.994 38.0849,125.764C 39.6107,125.856 41.1489,125.903 42.6979,125.903C 51.4678,125.903 59.8861,124.398 67.7086,121.632C 38.5668,111.342 17.6857,83.5554 17.6857,50.8914C 17.6857,48.1965 17.8278,45.5349 18.1049,42.9138C 12.3895,47.6096 7.38074,53.1343 3.26228,59.304C 2.89134,62.1138 2.69992,64.9805 2.69992,67.8916 Z "/>
	<path fill="#969696" fill-opacity="1" fill-rule="evenodd" stroke-width="0.2" stroke-linejoin="round" d="M 67.6891,132.714C 78.1487,132.714 88.1191,130.619 97.1673,126.825C 86.8388,126.825 76.9237,125.055 67.7089,121.802C 58.4829,125.064 48.5542,126.84 38.2108,126.84C 47.2855,130.624 57.2431,132.714 67.6891,132.714 Z "/>
	<linearGradient id="SVGID_Fill3_" gradientUnits="objectBoundingBox" x1="-0.0153889" y1="0.499998" x2="1.01539" y2="0.499998">
		<stop offset="0" stop-color="#646464" stop-opacity="0.996078"/>
		<stop offset="0.265116" stop-color="#969696" stop-opacity="0.996078"/>
		<stop offset="1" stop-color="#C8C8C8" stop-opacity="0.996078"/>
	</linearGradient>
	<path fill="url(#SVGID_Fill3_)" fill-rule="evenodd" stroke-width="1.99975" stroke-linejoin="round" stroke="#FFFFFF" stroke-opacity="0.996078" d="M 132.684,67.8916C 132.684,67.6401 132.682,67.3889 132.679,67.1382C 128.824,59.5 123.7,52.6111 117.585,46.748L 117.698,50.9031C 117.698,83.5547 96.8328,111.333 67.7086,121.632C 75.5216,124.39 83.9284,125.891 92.6857,125.891C 94.2437,125.891 95.7905,125.844 97.325,125.75C 118.319,114.976 132.684,93.1113 132.684,67.8916 Z "/>
	<path fill="#FF6464" fill-opacity="1" fill-rule="evenodd" stroke-width="3.9995" stroke-linejoin="round" stroke="#F00000" stroke-opacity="1" d="M 117.785,46.748C 104.311,33.8296 86.0256,25.8914 65.8857,25.8914C 47.8226,25.8914 31.2509,32.2769 18.305,42.9138C 18.0278,45.5349 17.8857,48.1965 17.8857,50.8914C 17.8857,83.5554 38.7668,111.342 67.9086,121.632C 97.0328,111.333 117.898,83.5547 117.898,50.9031C 117.898,49.5088 117.86,48.1235 117.785,46.748 Z "/>
	<g>
		<path fill="#000000" fill-opacity="1" stroke-width="0.2" stroke-linejoin="round" d="M 37.9441,45.6831C 37.9441,44.9966 38.1774,44.4248 38.6441,43.9683C 39.1107,43.5115 39.6774,43.2832 40.3441,43.2832C 41.0007,43.2832 41.5649,43.5115 42.0366,43.9683C 42.5082,44.4248 42.7441,44.9966 42.7441,45.6831C 42.7441,46.3599 42.5082,46.929 42.0366,47.3906C 41.5649,47.8523 41.0007,48.0833 40.3441,48.0833C 39.6874,48.0833 39.1232,47.8547 38.6516,47.3982C 38.1799,46.9414 37.9441,46.3699 37.9441,45.6831 Z M 38.5841,67.603L 34.3591,67.603L 36.9291,54.1631L 34.6791,54.1631L 35.3341,50.9631L 41.7841,50.9631L 38.5841,67.603 Z "/>
		<path fill="#FEFEFE" fill-opacity="1" stroke-width="0.2" stroke-linejoin="round" d="M 48.7741,58.9631L 47.2641,67.603L 44.0241,67.603L 48.1841,44.5632C 50.1074,44.3499 51.6274,44.2432 52.7441,44.2432C 58.4507,44.2432 61.3041,46.5032 61.3041,51.0232C 61.3041,53.623 60.4224,55.6499 58.6591,57.103C 56.8957,58.5564 54.6391,59.2832 51.8891,59.2832C 50.7991,59.2832 49.7607,59.1765 48.7741,58.9631 Z M 50.9041,47.4231L 49.2691,56.0833C 49.8491,56.2964 50.7007,56.4031 51.8241,56.4031C 53.6974,56.4031 55.2124,55.9666 56.3691,55.0933C 57.5257,54.2197 58.1041,52.9714 58.1041,51.3481C 58.1041,48.5315 56.6074,47.123 53.6141,47.123C 52.7674,47.123 51.8641,47.2231 50.9041,47.4231 Z "/>
		<path fill="#FEFEFE" fill-opacity="1" stroke-width="0.2" stroke-linejoin="round" d="M 68.1341,65.6831L 67.7891,67.9231C 64.3191,67.9231 62.5841,66.6782 62.5841,64.1882C 62.5841,63.4348 62.8491,61.7566 63.3791,59.1531L 66.4241,43.9231L 69.6841,43.9231L 66.7941,58.248C 66.1941,61.2249 65.8941,63.0898 65.8941,63.8433C 65.8941,65.0698 66.6407,65.6831 68.1341,65.6831 Z "/>
		<path fill="#FEFEFE" fill-opacity="1" stroke-width="0.2" stroke-linejoin="round" d="M 77.6841,50.9631L 75.6741,61.5781C 75.5874,62.0349 75.5441,62.4548 75.5441,62.8381C 75.5441,64.5215 76.4124,65.363 78.1491,65.363C 79.2157,65.363 80.2399,64.9639 81.2216,64.1655C 82.2032,63.3674 82.7941,62.4131 82.9941,61.3032L 84.9541,50.9631L 88.1841,50.9631L 84.9841,67.603L 81.7391,67.603L 82.2391,65.363C 81.0891,67.0698 79.0974,67.9231 76.2641,67.9231C 74.9807,67.9231 73.9799,67.5374 73.2616,66.7656C 72.5432,65.9939 72.1841,64.8982 72.1841,63.478C 72.1841,62.9814 72.2391,62.4431 72.3491,61.863L 74.4241,50.9631L 77.6841,50.9631 Z "/>
		<path fill="#FEFEFE" fill-opacity="1" stroke-width="0.2" stroke-linejoin="round" d="M 88.1841,66.613L 89.7341,63.7981C 90.1507,64.1882 90.7499,64.5464 91.5316,64.873C 92.3132,65.1997 92.9807,65.363 93.5341,65.363C 94.4874,65.363 95.2741,65.1174 95.8941,64.6257C 96.5141,64.134 96.8241,63.4666 96.8241,62.623C 96.8241,62.1931 96.6641,61.8091 96.3441,61.4707C 96.024,61.1323 95.4707,60.7432 94.6841,60.3032L 92.4691,59.1082C 91.7857,58.7249 91.2741,58.2397 90.9341,57.6531C 90.5941,57.0664 90.4241,56.4414 90.4241,55.7781C 90.4241,54.2314 91.0399,52.989 92.2716,52.0505C 93.5032,51.1123 95.0174,50.6431 96.8141,50.6431C 98.054,50.6431 99.5507,51.0281 101.304,51.7981L 99.9441,54.6082C 98.8974,53.6714 97.7724,53.2031 96.5691,53.2031C 95.7691,53.2031 95.0782,53.4006 94.4966,53.7957C 93.9149,54.1907 93.6241,54.7114 93.6241,55.3582C 93.6241,55.8281 93.7866,56.2324 94.1116,56.5706C 94.4366,56.9089 94.9974,57.2881 95.7941,57.7083L 97.994,58.8782C 98.6774,59.2415 99.1866,59.7083 99.5215,60.2781C 99.8566,60.8481 100.024,61.4697 100.024,62.1431C 100.024,63.9231 99.3632,65.3315 98.0415,66.3682C 96.7199,67.4048 95.0407,67.9231 93.0041,67.9231C 91.2107,67.9231 89.604,67.4866 88.1841,66.613 Z "/>
	</g>
	<linearGradient id="SVGID_Fill4_" gradientUnits="objectBoundingBox" x1="0.505399" y1="1.00035" x2="1.50207" y2="1.00035" gradientTransform="rotate(-90.000000 0.505399 1.000347)">
		<stop offset="0.00847458" stop-color="#FFFFFF" stop-opacity="0.0509804"/>
		<stop offset="1" stop-color="#FFFFFF" stop-opacity="0.8"/>
	</linearGradient>
	<path fill="url(#SVGID_Fill4_)" stroke-width="0.2" stroke-linejoin="round" d="M 70.4496,2.90332L 64.8555,2.90332C 41.2853,2.90332 11.704,18.7971 11.704,38.4031L 11.704,38.4031C 11.704,58.0093 30.8115,73.9033 54.3817,73.9033L 81.0264,73.9033C 104.597,73.9033 123.704,58.0093 123.704,38.4031L 123.704,38.4031C 123.704,18.7971 94.0198,2.90332 70.4496,2.90332 Z "/>
	<radialGradient id="SVGID_Fill5_" cx="67.4916" cy="67.4917" r="67.4917" gradientUnits="userSpaceOnUse">
		<stop offset="0.741525" stop-color="#000000" stop-opacity="0"/>
		<stop offset="1" stop-color="#000000" stop-opacity="0.701961"/>
	</radialGradient>
	<path fill="url(#SVGID_Fill5_)" stroke-width="0.2" stroke-linejoin="round" d="M 67.4916,0L 67.4916,0C 30.217,0 -7.62939e-006,30.217 -7.62939e-006,67.4917L -7.62939e-006,67.4919C -7.62939e-006,104.766 30.217,134.983 67.4916,134.983L 67.4916,134.983C 104.766,134.983 134.983,104.766 134.983,67.4919L 134.983,67.4917C 134.983,30.217 104.766,0 67.4916,0 Z "/>
	<g>
		<path fill="#FEFEFE" fill-opacity="1" stroke-width="0.64" stroke-linejoin="round" d="M 37.1227,88.1143L 36.9502,89.2341C 35.2152,89.2341 34.3477,88.6118 34.3477,87.3667C 34.3477,86.99 34.4802,86.1509 34.7452,84.8491L 36.2677,77.2341L 37.8977,77.2341L 36.4527,84.3967C 36.1527,85.885 36.0027,86.8176 36.0027,87.1943C 36.0027,87.8076 36.376,88.1143 37.1227,88.1143 Z "/>
		<path fill="#FEFEFE" fill-opacity="1" stroke-width="0.64" stroke-linejoin="round" d="M 38.9877,86.0142C 38.9877,84.5259 39.4285,83.2505 40.3102,82.188C 41.1918,81.1255 42.3118,80.5942 43.6702,80.5942C 44.6935,80.5942 45.4756,80.8677 46.0164,81.4143C 46.5573,81.9609 46.8277,82.7375 46.8277,83.7441C 46.8277,84.5425 46.6664,85.3721 46.3439,86.2329C 46.0214,87.0938 45.4939,87.8093 44.7614,88.3792C 44.0289,88.9492 43.151,89.2341 42.1277,89.2341C 41.116,89.2341 40.3398,88.9529 39.7989,88.3904C 39.2581,87.8279 38.9877,87.0359 38.9877,86.0142 Z M 40.5877,85.8967C 40.5877,87.2683 41.1777,87.9543 42.3577,87.9543C 43.236,87.9543 43.9339,87.5393 44.4514,86.7092C 44.9689,85.8792 45.2277,84.9202 45.2277,83.8318C 45.2277,82.5269 44.6377,81.8743 43.4577,81.8743C 42.8593,81.8743 42.3327,82.0818 41.8777,82.4968C 41.4227,82.9116 41.0939,83.4429 40.8914,84.0906C 40.6889,84.738 40.5877,85.3401 40.5877,85.8967 Z "/>
		<path fill="#FEFEFE" fill-opacity="1" stroke-width="0.64" stroke-linejoin="round" d="M 55.3077,81.2717L 54.2527,86.1143C 54.2093,86.3108 54.1877,86.5493 54.1877,86.8293C 54.1877,87.6375 54.2943,88.386 54.5077,89.0742L 52.9077,89.0742C 52.826,88.916 52.7385,88.6492 52.6452,88.2742C 52.4035,88.5593 52.0439,88.7905 51.5664,88.968C 51.0889,89.1455 50.5835,89.2341 50.0502,89.2341C 49.2385,89.2341 48.6052,88.9917 48.1502,88.5068C 47.6952,88.0217 47.4677,87.3259 47.4677,86.4192C 47.4677,84.8943 47.9256,83.5422 48.8414,82.363C 49.7573,81.1838 50.936,80.5942 52.3777,80.5942C 53.7393,80.5942 54.716,80.8201 55.3077,81.2717 Z M 53.7077,82.2092C 53.5643,81.9858 53.0793,81.8743 52.2527,81.8743C 51.4093,81.8743 50.6677,82.2993 50.0277,83.1492C 49.3877,83.9993 49.0677,85.0618 49.0677,86.3367C 49.0677,87.415 49.5743,87.9543 50.5877,87.9543C 51.116,87.9543 51.6123,87.6956 52.0764,87.178C 52.5406,86.6604 52.8627,85.9968 53.0427,85.1868L 53.7077,82.2092 Z "/>
		<path fill="#FEFEFE" fill-opacity="1" stroke-width="0.64" stroke-linejoin="round" d="M 61.3577,89.0742L 61.5377,88.1267C 60.926,88.865 60.091,89.2341 59.0327,89.2341C 58.116,89.2341 57.3993,88.9575 56.8827,88.4043C 56.366,87.8508 56.1077,87.0984 56.1077,86.1467C 56.1077,84.52 56.5489,83.188 57.4314,82.1504C 58.3139,81.113 59.4435,80.5942 60.8202,80.5942C 61.6202,80.5942 62.2327,80.9226 62.6577,81.5791L 63.4452,77.2341L 64.9077,77.2341L 62.8277,89.0742L 61.3577,89.0742 Z M 62.3852,83.0842C 62.3952,83.0376 62.3252,82.8931 62.1752,82.6504C 62.0252,82.408 61.8431,82.218 61.6289,82.0806C 61.4148,81.9429 61.1893,81.8743 60.9527,81.8743C 60.0193,81.8743 59.2452,82.2405 58.6302,82.9729C 58.0152,83.7056 57.7077,84.6433 57.7077,85.7866C 57.7077,87.2317 58.3227,87.9543 59.5527,87.9543C 60.106,87.9543 60.6227,87.6914 61.1027,87.1655C 61.5827,86.6396 61.8943,85.96 62.0377,85.1267L 62.3852,83.0842 Z "/>
		<path fill="#FEFEFE" fill-opacity="1" stroke-width="0.64" stroke-linejoin="round" d="M 68.0277,77.3943C 68.3143,77.3943 68.5593,77.4951 68.7627,77.6968C 68.966,77.8984 69.0677,78.146 69.0677,78.4392C 69.0677,78.7258 68.966,78.97 68.7627,79.1716C 68.5593,79.3733 68.3143,79.4741 68.0277,79.4741C 67.741,79.4741 67.496,79.3733 67.2927,79.1716C 67.0893,78.97 66.9877,78.7258 66.9877,78.4392C 66.9877,78.146 67.0893,77.8984 67.2927,77.6968C 67.496,77.4951 67.741,77.3943 68.0277,77.3943 Z M 65.6527,89.0742L 66.8977,81.8743L 65.7077,81.8743L 65.9802,80.7542L 68.5877,80.7542L 67.1477,89.0742L 65.6527,89.0742 Z "/>
		<path fill="#FEFEFE" fill-opacity="1" stroke-width="0.64" stroke-linejoin="round" d="M 75.1327,89.0742L 75.9452,84.2017C 76.0168,83.7683 76.0527,83.4084 76.0527,83.1218C 76.0527,82.29 75.6085,81.8743 74.7202,81.8743C 74.3785,81.8743 74.0135,81.9846 73.6252,82.2056C 73.2368,82.4263 72.9268,82.6892 72.6952,82.9941L 71.6277,89.0742L 70.2152,89.0742L 71.2427,82.7493C 71.266,82.6025 71.2777,82.4309 71.2777,82.2341C 71.2777,81.7126 71.2235,81.2593 71.1152,80.8743L 72.5452,80.5942C 72.6852,81.3774 72.7527,81.8042 72.7477,81.8743C 73.376,81.021 74.2827,80.5942 75.4677,80.5942C 76.961,80.5942 77.7077,81.3508 77.7077,82.8643C 77.7077,83.1709 77.6752,83.5142 77.6102,83.8943L 76.7477,89.0742L 75.1327,89.0742 Z "/>
		<path fill="#FEFEFE" fill-opacity="1" stroke-width="0.64" stroke-linejoin="round" d="M 78.1877,91.4968L 78.8927,90.3767C 79.806,90.895 80.5627,91.1543 81.1627,91.1543C 81.821,91.1543 82.3698,91.0259 82.8089,90.7693C 83.2481,90.5125 83.4677,90.1533 83.4677,89.6917C 83.4677,89.4617 83.3952,89.2722 83.2502,89.123C 83.1052,88.9739 82.8585,88.8677 82.5102,88.8042L 81.2152,88.5693C 80.6902,88.4275 80.4277,88.1418 80.4277,87.7117C 80.4277,87.365 80.8735,87.0168 81.7652,86.6667L 81.4927,86.6743C 80.871,86.6743 80.3248,86.4446 79.8539,85.9854C 79.3831,85.5264 79.1477,84.9741 79.1477,84.3291C 79.1477,83.2292 79.4948,82.3318 80.1889,81.6367C 80.8831,80.9417 81.7693,80.5942 82.8477,80.5942C 83.6243,80.5942 84.2368,80.7817 84.6852,81.1567L 85.3777,80.3591L 86.1877,81.2041L 85.4827,82.0093C 85.6327,82.2227 85.7077,82.5583 85.7077,83.0166C 85.7077,83.9116 85.4835,84.6797 85.0352,85.3206C 84.5868,85.9614 84.0002,86.4104 83.2752,86.668C 82.5502,86.9255 82.1877,87.1667 82.1877,87.3918C 82.1877,87.5735 82.286,87.6643 82.4827,87.6643C 82.5543,87.6643 82.6614,87.6526 82.8039,87.6292C 82.9464,87.606 83.0543,87.5942 83.1277,87.5942C 84.421,87.5942 85.0677,88.1868 85.0677,89.3718C 85.0677,90.3018 84.6618,91.0447 83.8502,91.6006C 83.0385,92.1563 82.0735,92.4343 80.9552,92.4343C 79.8218,92.4343 78.8993,92.1218 78.1877,91.4968 Z M 82.7827,81.8743C 82.2093,81.8743 81.7268,82.1047 81.3352,82.5654C 80.9435,83.0264 80.7477,83.5684 80.7477,84.1917C 80.7477,85.3135 81.1593,85.8743 81.9827,85.8743C 82.541,85.8743 83.0347,85.5925 83.4639,85.0293C 83.8931,84.4658 84.1077,83.8677 84.1077,83.2341C 84.1077,82.8159 83.9881,82.4846 83.7489,82.2405C 83.5098,81.9963 83.1877,81.8743 82.7827,81.8743 Z "/>
		<path fill="#FEFEFE" fill-opacity="1" stroke-width="0.64" stroke-linejoin="round" d="M 88.5877,86.8342C 88.896,86.8342 89.1597,86.9514 89.3789,87.1855C 89.5981,87.4197 89.7077,87.7009 89.7077,88.0293C 89.7077,88.3591 89.5981,88.6426 89.3789,88.8792C 89.1597,89.116 88.896,89.2341 88.5877,89.2341C 88.2793,89.2341 88.0156,89.116 87.7964,88.8792C 87.5773,88.6426 87.4677,88.3591 87.4677,88.0293C 87.4677,87.7009 87.5773,87.4197 87.7964,87.1855C 88.0156,86.9514 88.2793,86.8342 88.5877,86.8342 Z "/>
		<path fill="#FEFEFE" fill-opacity="1" stroke-width="0.64" stroke-linejoin="round" d="M 94.5077,86.8342C 94.816,86.8342 95.0798,86.9514 95.2989,87.1855C 95.5181,87.4197 95.6277,87.7009 95.6277,88.0293C 95.6277,88.3591 95.5181,88.6426 95.2989,88.8792C 95.0798,89.116 94.816,89.2341 94.5077,89.2341C 94.1993,89.2341 93.9356,89.116 93.7164,88.8792C 93.4973,88.6426 93.3877,88.3591 93.3877,88.0293C 93.3877,87.7009 93.4973,87.4197 93.7164,87.1855C 93.9356,86.9514 94.1993,86.8342 94.5077,86.8342 Z "/>
		<path fill="#FEFEFE" fill-opacity="1" stroke-width="0.64" stroke-linejoin="round" d="M 100.428,86.8342C 100.736,86.8342 101,86.9514 101.219,87.1855C 101.438,87.4197 101.548,87.7009 101.548,88.0293C 101.548,88.3591 101.438,88.6426 101.219,88.8792C 101,89.116 100.736,89.2341 100.428,89.2341C 100.119,89.2341 99.8556,89.116 99.6364,88.8792C 99.4172,88.6426 99.3077,88.3591 99.3077,88.0293C 99.3077,87.7009 99.4172,87.4197 99.6364,87.1855C 99.8556,86.9514 100.119,86.8342 100.428,86.8342 Z "/>
	</g>
</svg>